<?xml version="1.0" standalone="no"?>
<!DOCTYPE svg PUBLIC "-//W3C//DTD SVG 20010904//EN"
 "http://www.w3.org/TR/2001/REC-SVG-20010904/DTD/svg10.dtd">
<svg version="1.0" xmlns="http://www.w3.org/2000/svg"
 width="1280.000000pt" height="720.000000pt" viewBox="0 0 1280.000000 720.000000"
 preserveAspectRatio="xMidYMid meet">
<metadata>
Created by potrace 1.16, written by Peter Selinger 2001-2019
</metadata>
<g transform="translate(0.000000,720.000000) scale(0.100000,-0.100000)"
fill="#000000" stroke="none">
<path d="M6325 6572 c-5 -5 -53 -15 -105 -21 -122 -15 -200 -37 -275 -76 -33
-18 -78 -41 -100 -53 -22 -11 -87 -36 -145 -54 -88 -27 -114 -40 -160 -81 -86
-75 -110 -101 -110 -118 0 -15 -39 -59 -53 -59 -3 0 -34 -20 -69 -44 -70 -49
-125 -102 -115 -112 8 -8 -19 -60 -49 -97 -30 -35 -40 -73 -25 -91 9 -10 8
-25 -5 -62 -9 -27 -17 -87 -19 -134 -2 -78 -9 -110 -34 -150 -56 -90 -116
-302 -142 -502 -11 -83 -10 -121 5 -265 10 -92 31 -247 47 -343 32 -192 45
-319 35 -345 -5 -15 -9 -15 -40 4 -43 27 -86 27 -121 0 -23 -19 -26 -26 -19
-58 4 -20 6 -50 5 -67 -1 -29 16 -96 40 -151 39 -95 48 -125 54 -183 7 -68 33
-172 45 -184 6 -6 10 -26 10 -46 0 -47 25 -229 44 -315 8 -38 22 -110 32 -160
37 -199 117 -485 163 -587 11 -24 21 -47 23 -53 1 -5 20 -42 41 -82 l39 -71
128 5 c80 4 164 1 224 -7 85 -11 107 -11 189 5 50 9 134 32 184 51 64 23 110
34 148 34 51 0 72 11 43 24 -10 3 -9 8 3 18 10 9 13 21 8 38 -4 14 -7 22 -8
18 -1 -4 -19 10 -40 30 -32 30 -38 42 -34 65 5 25 3 27 -32 27 -28 0 -38 -5
-42 -20 -3 -11 -10 -17 -17 -13 -6 4 -4 -1 4 -11 12 -16 11 -20 -10 -37 -28
-21 -118 -54 -137 -51 -7 2 -13 -1 -13 -6 0 -6 -12 -12 -27 -14 -16 -3 -37 -9
-47 -13 -14 -6 -17 -5 -12 3 9 16 1 15 -37 -2 -18 -8 -82 -17 -147 -20 -63 -3
-122 -6 -130 -7 -8 -1 -30 -1 -48 -1 -54 3 -19 26 94 62 54 17 133 44 174 60
84 33 193 62 290 80 36 6 69 16 74 21 6 5 18 9 28 9 19 0 22 8 10 26 -8 12
-86 35 -117 35 -153 -2 -144 -4 -176 28 -34 34 -33 57 4 92 34 31 89 42 155
29 31 -6 118 -15 192 -20 90 -7 167 -18 230 -36 52 -14 118 -32 145 -39 28 -8
107 -21 175 -31 190 -25 272 -74 365 -214 26 -39 50 -70 55 -70 5 0 35 23 66
50 66 58 164 109 220 116 73 9 142 -49 143 -122 1 -28 -56 -130 -96 -172 -21
-22 -26 -62 -13 -90 7 -15 19 -63 26 -106 12 -71 17 -82 46 -105 62 -48 128
-114 128 -127 0 -8 4 -14 9 -14 16 0 30 -58 37 -157 4 -64 16 -127 34 -183 15
-47 36 -127 45 -178 27 -142 37 -167 72 -167 22 0 28 4 26 19 -1 11 4 25 12
30 7 6 15 29 19 51 3 22 10 60 15 85 6 27 6 46 0 48 -10 4 -1 50 12 68 5 6 7
13 4 16 -3 2 -7 31 -10 64 -7 80 -28 171 -43 186 -6 6 -12 20 -12 30 0 10 -4
18 -10 18 -5 0 -10 9 -10 20 0 22 -18 68 -36 90 -7 8 -14 24 -16 35 -1 11 -9
26 -16 34 -7 7 -11 18 -9 24 3 10 -75 97 -87 97 -4 0 -26 9 -51 21 -49 23 -56
43 -27 75 24 27 103 148 142 217 42 75 102 254 94 280 -3 11 -2 17 3 14 5 -3
14 19 19 50 8 43 7 56 -3 60 -7 3 -13 9 -13 14 0 4 6 6 14 3 17 -6 30 26 16
40 -14 14 -12 26 5 26 8 0 15 9 15 20 0 11 -4 20 -8 20 -15 0 -7 49 10 62 19
14 34 108 18 108 -6 0 -10 9 -10 19 0 10 -7 21 -15 25 -8 3 -15 12 -15 21 0 9
7 18 15 21 8 4 15 16 15 28 0 17 -2 18 -10 6 -6 -10 -10 -11 -10 -3 0 7 -3 12
-7 12 -5 -1 -21 -1 -38 1 -26 1 -27 3 -10 10 11 5 16 9 10 10 -5 1 1 6 15 10
l25 8 -28 1 c-20 1 -26 5 -21 14 5 8 2 8 -9 -2 -18 -15 -20 -9 -18 49 0 14 -2
20 -4 15 -3 -6 -22 -9 -43 -7 -32 4 -35 3 -24 -11 8 -9 23 -17 34 -19 12 -2
23 -7 24 -13 6 -17 -31 -56 -55 -58 -18 -1 -22 -6 -19 -28 3 -19 0 -25 -11
-23 -9 1 -46 5 -83 8 -63 5 -68 4 -68 -14 0 -11 6 -20 13 -20 6 -1 1 -7 -13
-14 -20 -11 -44 -12 -115 -5 -50 5 -110 15 -135 21 -39 10 -102 17 -162 19
-10 0 -18 7 -18 16 0 13 -3 13 -15 3 -13 -10 -15 -9 -15 9 0 11 -4 21 -10 21
-5 0 -10 7 -10 15 0 7 -8 19 -17 24 -17 10 -17 12 0 25 20 15 22 37 6 53 -9 9
-5 14 14 18 22 6 25 10 16 26 -6 13 -6 19 1 19 16 0 22 3 57 34 18 16 33 36
33 43 0 7 7 13 15 13 8 0 15 7 15 15 0 8 4 15 9 15 6 0 25 14 43 31 18 17 53
40 78 51 25 12 49 27 53 34 4 8 15 14 22 14 8 0 15 6 15 13 0 22 171 190 227
222 17 10 37 28 43 40 10 18 53 51 77 58 15 4 93 88 93 100 0 7 4 17 9 23 12
11 2 66 -10 58 -10 -6 -12 5 -10 51 1 19 -7 39 -22 55 -14 15 -23 36 -22 50 1
14 -4 40 -12 58 -7 18 -11 37 -8 42 10 16 -112 71 -140 64 -14 -3 -25 -2 -25
3 0 13 -59 45 -70 38 -6 -3 -10 -2 -10 4 0 6 -18 15 -41 21 -23 6 -38 14 -35
17 9 9 -33 35 -44 28 -6 -4 -16 -2 -23 3 -7 6 -68 10 -137 10 -69 1 -139 6
-154 12 -34 13 -147 25 -237 25 -51 -1 -71 -5 -92 -21 -14 -12 -23 -24 -20
-28 3 -3 1 -6 -7 -6 -10 0 -10 -3 1 -16 12 -15 11 -16 -7 -10 -16 5 -23 2 -27
-14 -3 -13 0 -20 8 -20 15 0 23 -25 17 -57 -3 -14 -12 -23 -23 -23 -11 0 -19
-5 -19 -11 0 -6 -9 -9 -20 -6 -10 3 -21 0 -23 -7 -3 -6 -17 0 -34 17 -17 16
-50 35 -74 42 l-44 14 38 0 c20 1 37 -3 37 -9 0 -5 5 -10 11 -10 8 0 8 5 -1
15 -7 8 -19 15 -26 15 -17 0 -19 26 -2 36 14 9 -18 34 -44 34 -10 0 -18 5 -18
10 0 6 12 10 28 10 15 0 44 3 65 7 34 5 38 9 34 29 -2 13 0 24 4 24 5 0 9 7 9
15 0 8 -8 15 -19 15 -26 0 -44 23 -29 38 7 7 8 12 3 12 -4 0 0 9 10 20 18 20
18 21 -4 44 -34 36 -16 61 49 70 32 4 50 11 48 19 -1 7 3 22 10 35 11 18 10
23 0 27 -30 12 -17 45 25 65 39 18 42 23 42 60 1 35 -3 41 -30 52 -16 7 -39
20 -50 30 -17 16 -18 21 -6 40 15 24 9 29 -46 50 -18 7 -33 18 -33 25 0 7 -8
13 -17 13 -12 1 -6 7 15 18 18 10 29 22 25 26 -4 5 7 5 24 1 18 -3 42 -4 52 0
18 5 19 9 8 26 -11 17 -19 19 -72 13 -33 -4 -62 -11 -65 -15 -7 -10 -50 0 -50
12 0 5 7 9 15 9 8 0 15 7 15 15 0 8 5 15 10 15 6 0 10 -4 10 -10 0 -5 7 -7 15
-4 33 13 12 31 -49 43 -70 14 -119 39 -81 42 15 0 12 3 -9 9 -16 5 -33 7 -37
5 -4 -3 -9 2 -13 10 -3 8 -15 15 -26 15 -12 0 -20 6 -19 13 3 26 -2 37 -16 37
-8 0 -21 13 -30 30 -13 26 -14 29 0 24 10 -4 15 0 15 15 0 12 -6 21 -15 21 -8
0 -15 4 -15 10 0 5 -7 7 -15 4 -10 -4 -15 0 -15 11 0 9 -4 13 -10 10 -5 -3
-10 -1 -10 4 0 6 4 11 9 11 12 0 31 56 23 66 -4 4 -1 4 6 0 8 -5 21 -1 33 10
15 13 19 14 20 3 0 -8 6 -2 12 12 7 14 18 34 26 43 13 15 13 19 0 27 -11 7 -9
9 9 9 25 0 52 21 52 39 0 6 10 11 23 11 13 0 28 5 34 11 9 9 21 8 46 -5 19 -9
38 -16 41 -16 4 0 30 -17 59 -39 61 -45 104 -61 163 -61 48 0 66 14 31 24 -22
6 -22 7 -3 21 11 8 32 15 48 15 15 0 48 15 73 32 42 30 53 33 116 32 71 -1 94
-9 70 -23 -17 -11 0 -17 58 -20 24 -1 65 -13 92 -27 27 -13 73 -31 104 -38 30
-8 60 -20 67 -25 73 -60 102 -81 115 -81 17 0 83 -63 83 -78 0 -5 7 -15 15
-22 9 -7 13 -15 11 -18 -3 -2 1 -14 9 -26 8 -11 15 -28 15 -38 0 -29 41 -129
51 -123 5 4 10 3 10 -2 7 -53 7 -73 -2 -78 -6 -4 0 -16 16 -30 16 -15 25 -35
25 -53 0 -16 8 -37 19 -46 10 -9 21 -37 25 -63 3 -25 11 -52 17 -59 7 -9 7
-19 -1 -34 -14 -26 7 -55 48 -65 16 -4 21 -9 15 -13 -8 -5 -9 -19 -4 -44 10
-42 -3 -73 -19 -48 -8 13 -10 12 -11 -5 -1 -11 -1 -23 0 -27 0 -5 -4 -8 -10
-8 -6 0 -9 9 -6 20 7 27 -6 33 -21 10 -8 -13 -8 -21 -1 -26 20 -12 -30 -36
-59 -29 -15 4 -21 10 -14 12 24 9 12 19 -24 20 -19 1 -38 4 -42 7 -9 9 19 34
43 38 11 2 26 9 33 16 16 15 32 16 32 1 0 -5 5 -7 11 -3 8 5 6 10 -5 16 -9 5
-16 14 -16 19 0 6 5 7 10 4 6 -3 10 1 10 9 0 10 -6 13 -15 10 -8 -4 -26 -3
-39 0 -30 7 -42 55 -19 73 21 16 11 27 -16 18 -12 -4 -18 -12 -14 -21 3 -7 1
-14 -5 -14 -15 0 -23 28 -9 34 24 9 -17 26 -50 20 -25 -5 -34 -2 -45 15 -7 12
-18 21 -25 21 -7 0 -17 9 -23 20 -6 11 -22 23 -35 26 -25 6 -33 19 -16 26 4 2
12 13 15 26 5 16 4 22 -6 20 -8 -2 -14 9 -16 28 -3 28 -8 33 -38 38 -36 7 -44
20 -18 30 22 8 0 29 -48 45 -20 7 -38 17 -40 23 -2 6 -11 4 -21 -6 -26 -26
-167 -31 -152 -5 3 4 12 6 20 3 20 -8 42 7 24 16 -25 14 -119 -7 -140 -31 -10
-12 -19 -26 -19 -30 0 -12 -37 -30 -68 -34 -15 -1 -30 -3 -34 -4 -15 -2 -8
-31 7 -31 8 0 15 -4 15 -10 0 -5 -6 -10 -14 -10 -7 0 -25 -9 -40 -21 -14 -11
-35 -21 -46 -22 -41 -3 -12 -22 41 -27 l54 -5 -27 -19 c-15 -10 -25 -22 -22
-27 3 -5 -1 -9 -8 -9 -21 0 -98 -32 -98 -41 0 -5 13 -9 29 -9 16 0 48 -7 71
-15 23 -8 60 -15 82 -15 22 0 47 -4 56 -9 10 -5 39 -11 66 -14 26 -3 53 -10
59 -16 6 -6 29 -11 52 -12 33 -1 36 -2 15 -8 -23 -7 -20 -10 37 -37 59 -27 78
-44 52 -44 -27 0 42 -40 95 -55 32 -9 67 -26 79 -38 13 -13 22 -17 25 -9 5 17
22 15 22 -3 0 -21 18 -19 23 3 4 14 5 15 6 1 1 -14 13 -17 75 -16 41 1 72 5
70 9 -2 3 0 9 6 13 5 3 10 1 10 -5 0 -15 26 -41 34 -33 3 4 6 2 6 -3 0 -6 -5
-15 -12 -22 -18 -18 6 -37 45 -37 22 0 32 -5 32 -16 0 -18 28 -49 44 -49 6 0
11 19 12 43 2 78 7 161 13 237 12 141 7 374 -10 452 -9 40 -16 81 -16 92 1 10
-10 36 -24 57 -13 21 -24 49 -24 63 0 13 -7 29 -15 36 -8 7 -15 19 -15 28 0 8
-11 29 -24 47 -13 17 -27 53 -31 78 -4 26 -15 53 -24 60 -20 15 -51 62 -51 78
0 6 -9 22 -20 36 -22 28 -25 74 -10 138 6 26 5 42 -1 46 -6 4 -4 9 6 13 12 4
14 10 7 19 -5 6 -12 28 -16 49 -4 22 -16 42 -30 51 -13 9 -35 45 -51 84 -31
77 -42 94 -58 87 -7 -2 -17 6 -22 18 -16 34 -73 62 -102 49 -13 -6 -32 -11
-42 -11 -23 0 -216 96 -261 129 -36 28 -108 55 -171 65 -19 4 -53 15 -74 26
-22 11 -45 20 -52 20 -7 0 -21 4 -31 10 -38 22 -111 43 -177 50 -38 5 -86 14
-105 20 -49 15 -233 25 -245 12z m18 -2129 c23 -6 22 -20 -3 -35 -22 -14 -27
-30 -7 -27 6 1 31 -2 55 -6 51 -9 56 -38 7 -41 -17 -1 -41 -7 -55 -12 l-25
-11 30 -2 c24 -2 21 -3 -15 -8 l-45 -7 35 -11 c19 -6 27 -12 18 -12 -10 -1
-18 -5 -18 -11 0 -5 -6 -7 -14 -4 -8 3 -23 1 -33 -5 -16 -9 -16 -10 5 -11 34
0 27 -29 -12 -45 -26 -11 -41 -12 -67 -3 -70 23 -81 29 -76 42 3 7 1 18 -4 23
-14 14 13 61 31 56 8 -3 4 5 -10 16 l-25 19 28 8 c20 5 25 10 18 17 -15 15
-14 30 2 21 6 -4 4 1 -5 12 -17 19 -17 20 18 21 19 1 41 7 49 13 12 10 15 10
15 -1 0 -10 5 -9 17 4 16 16 29 16 86 0z m234 -804 c33 -12 93 -67 93 -86 0
-7 16 -27 35 -44 19 -18 37 -39 40 -49 3 -9 17 -22 30 -28 14 -6 25 -18 25
-25 0 -8 17 -22 38 -31 55 -25 84 -81 88 -173 2 -64 8 -81 43 -141 36 -63 81
-200 81 -251 0 -25 13 -27 30 -6 14 17 85 21 95 5 4 -6 24 -18 46 -27 26 -10
39 -21 39 -34 0 -10 4 -19 10 -19 12 0 34 -52 44 -104 6 -29 3 -42 -10 -57 -9
-11 -14 -22 -11 -26 9 -9 -58 -34 -108 -40 -22 -3 -42 -9 -45 -14 -3 -5 -38
-11 -78 -15 -61 -6 -72 -4 -78 10 -3 9 -13 16 -21 16 -8 0 -12 -4 -8 -9 3 -6
-3 -15 -14 -20 -28 -16 -35 -13 -16 5 12 12 13 19 4 30 -7 9 -8 18 -2 27 15
20 42 98 49 145 5 30 14 48 31 59 18 12 23 23 20 39 -2 13 0 21 4 18 5 -3 9
-1 9 4 0 10 -59 21 -145 26 -52 3 -99 18 -109 35 -9 14 -104 23 -146 13 -25
-6 -36 -14 -38 -30 -2 -12 -8 -22 -13 -22 -5 0 -21 -8 -36 -17 -14 -10 -35
-19 -47 -20 -11 -2 -23 -7 -26 -11 -12 -16 -79 -7 -102 15 -12 11 -32 23 -43
25 -30 5 -38 108 -12 157 13 24 16 40 10 51 -6 10 -5 24 3 39 11 21 10 28 -7
49 -13 17 -19 40 -19 73 0 28 -5 49 -12 52 -9 4 -5 12 11 25 17 14 22 24 16
41 -4 14 -12 20 -21 17 -9 -3 -14 1 -14 14 0 12 -7 20 -16 20 -13 0 -11 6 10
25 15 14 26 35 26 50 0 14 5 25 10 25 6 0 10 9 10 21 0 36 39 107 73 133 53
40 123 55 174 35z m-744 -672 c21 -2 23 -17 1 -17 -12 0 -15 -6 -11 -22 8 -33
-33 -78 -72 -78 -20 0 -35 -7 -43 -20 -7 -11 -20 -20 -30 -20 -13 0 -16 8 -14
35 2 26 -1 35 -12 35 -16 0 17 35 54 56 11 6 17 15 16 19 -7 15 24 26 58 19
19 -3 43 -6 53 -7z"/>
<path d="M8095 3956 c-22 -20 -50 -44 -62 -55 -34 -30 -38 -63 -25 -221 16
-185 17 -190 52 -190 33 0 40 18 40 106 0 74 -9 126 -21 118 -5 -3 -9 2 -9 10
0 19 26 22 32 4 8 -24 57 138 60 197 4 74 -10 80 -67 31z"/>
<path d="M5687 1906 c-3 -7 -20 -16 -37 -20 -26 -5 -30 -9 -21 -19 6 -8 8 -17
4 -20 -3 -4 -2 -7 4 -7 14 0 5 -40 -15 -62 -23 -27 -57 -22 -112 17 -27 19
-54 35 -60 35 -5 0 -10 4 -10 10 0 5 -7 7 -16 3 -10 -4 -17 1 -21 16 -7 27
-19 27 -27 -1 -5 -20 -8 -21 -16 -7 -8 14 -27 16 -124 13 -101 -3 -116 -2
-125 14 -10 16 -10 16 -11 0 0 -10 -4 -18 -10 -18 -5 0 -10 5 -10 11 0 6 -6 9
-14 6 -7 -3 -19 0 -25 6 -17 17 -43 -59 -44 -131 0 -34 3 -66 9 -72 9 -9 368
-87 447 -97 50 -7 110 17 191 75 36 26 84 59 106 75 34 23 39 30 31 46 -6 10
-7 21 -4 25 3 3 -1 6 -9 6 -10 0 -14 7 -11 23 2 12 -3 36 -11 52 -9 17 -16 24
-16 18 0 -7 -4 -13 -10 -13 -5 0 -10 7 -10 15 0 19 -16 20 -23 1z"/>
<path d="M4753 1481 c-7 -12 -10 -33 -7 -50 6 -27 3 -32 -27 -45 -19 -8 -70
-31 -114 -52 -56 -26 -101 -39 -150 -44 -72 -8 -140 -33 -187 -71 -15 -12 -46
-26 -70 -30 -24 -4 -68 -15 -98 -24 -30 -9 -102 -20 -160 -25 -97 -8 -209 -26
-185 -29 27 -3 -51 -30 -88 -30 -88 1 -227 -30 -227 -51 0 -12 -33 -13 -45 -1
-15 14 -141 -2 -138 -17 2 -6 -7 -12 -20 -12 -12 -1 -33 -7 -47 -15 -14 -8
-36 -14 -50 -15 -14 0 -42 -15 -64 -35 -22 -19 -45 -35 -52 -35 -7 0 -14 -3
-16 -7 -1 -5 -32 -26 -68 -47 -36 -22 -69 -46 -73 -53 -4 -7 -15 -13 -22 -13
-8 0 -15 -7 -15 -15 0 -8 -7 -15 -16 -15 -9 0 -49 -25 -89 -55 -39 -30 -74
-55 -77 -55 -3 0 -43 -36 -89 -80 -46 -44 -87 -80 -91 -80 -5 0 -8 -8 -8 -17
0 -10 -14 -27 -30 -38 -16 -11 -30 -23 -30 -27 0 -4 -22 -34 -50 -67 -27 -33
-50 -63 -50 -66 0 -6 -7 -16 -45 -59 -14 -16 -25 -35 -25 -42 0 -7 -6 -19 -14
-26 -22 -23 -106 -127 -106 -133 0 -3 880 -5 1956 -5 l1955 0 -20 26 c-11 15
-18 30 -15 35 5 8 -18 13 -53 12 -9 0 -9 4 0 19 10 15 9 20 -3 28 -8 5 -23 10
-33 10 -10 0 -20 8 -24 17 -3 10 -15 26 -27 35 -18 15 -19 19 -6 28 12 7 12
10 1 10 -7 0 -11 6 -8 13 3 9 -9 20 -34 31 -34 15 -45 30 -40 59 0 4 -4 7 -10
7 -13 0 -48 40 -49 55 0 6 -9 18 -20 28 -11 9 -17 23 -14 31 3 9 -6 17 -26 25
-19 6 -29 15 -24 22 3 6 0 15 -7 20 -11 7 -11 9 -1 9 7 0 10 5 7 10 -4 6 -11
8 -16 5 -5 -4 -9 3 -9 13 0 21 -27 49 -37 38 -8 -8 -43 44 -43 65 0 9 -7 20
-16 23 -8 3 -13 9 -10 14 2 4 -9 27 -25 51 -16 24 -29 49 -29 56 0 7 -12 25
-26 40 -30 32 -48 72 -45 98 3 22 -27 47 -47 40 -8 -3 -15 3 -19 15 -3 12 -13
24 -23 27 -26 8 -38 26 -45 65 -3 19 -11 37 -16 41 -6 3 -12 26 -12 50 -1 27
-9 50 -19 60 -25 23 -23 28 12 27 16 -1 36 4 44 11 7 6 46 13 85 13 56 2 70 5
66 16 -3 7 -5 18 -5 23 0 5 -9 9 -20 9 -11 0 -20 3 -20 8 0 9 -82 33 -121 35
-17 1 -25 7 -22 15 3 7 -3 12 -15 12 -11 0 -25 7 -32 15 -8 9 -31 15 -59 16
-35 0 -41 2 -26 9 13 6 -13 8 -73 6 -51 -2 -95 1 -98 6 -3 5 -14 6 -25 3 -13
-4 -19 -2 -19 9 0 18 -50 19 -51 1 0 -5 -5 -1 -10 10 -8 17 -8 15 -4 -7 3 -16
1 -28 -4 -28 -5 0 -11 14 -13 30 -3 29 -4 30 -15 11z"/>
<path d="M10280 787 c0 -8 9 -22 20 -32 11 -10 17 -21 14 -26 -11 -18 9 -56
41 -78 111 -76 282 -304 400 -534 l60 -117 173 0 c94 0 172 4 172 8 0 5 -9 19
-20 32 -11 13 -23 41 -27 63 -4 26 -21 57 -54 95 -27 32 -49 62 -49 69 0 6 -3
13 -7 15 -14 6 -90 102 -107 136 -9 17 -21 32 -26 32 -5 0 -30 22 -56 50 -39
42 -183 150 -200 150 -3 0 -20 11 -37 24 -39 29 -191 101 -232 110 -16 4 -38
9 -47 12 -11 3 -18 0 -18 -9z"/>
<path d="M8709 463 c14 -27 14 -36 1 -28 -10 6 19 -68 41 -103 11 -17 16 -19
29 -9 13 10 13 10 2 -5 -12 -14 -11 -22 4 -48 10 -16 22 -30 26 -30 4 0 5 -7
2 -15 -4 -8 -2 -15 3 -15 6 0 15 -10 21 -22 7 -16 11 -18 11 -7 1 9 9 23 19
32 29 26 26 68 -5 95 -16 13 -22 21 -15 17 6 -3 12 -1 12 4 0 6 -7 11 -15 11
-8 0 -19 10 -26 21 -8 15 -8 19 0 15 22 -14 10 14 -17 42 -26 26 -30 28 -40
13 -10 -14 -11 -14 -12 4 0 17 -2 17 -10 5 -5 -8 -10 -10 -10 -4 0 5 -7 19
-16 30 -15 18 -15 18 -5 -3z"/>
</g>
</svg>
